<svg xmlns="http://www.w3.org/2000/svg" width="40" height="40" fill="none" viewBox="0 0 40 40"><path fill="var(--color-N200, #e6e9f3)" fill-rule="evenodd" d="M9 20.151c1.65-2.383 6.16-7.15 11-7.15s9.35 4.767 11 7.15c-1.467 2.384-5.72 7.15-11 7.15s-9.533-4.766-11-7.15Zm11 4.4a4.4 4.4 0 1 0 0-8.8 4.4 4.4 0 0 0 0 8.8Z" clip-rule="evenodd"></path><path fill="var(--color-N600, #0f1e57)" fill-rule="evenodd" d="M19.868 16.695a3.369 3.369 0 1 0 .002 6.738 3.369 3.369 0 0 0-.002-6.738ZM15 20.065a4.869 4.869 0 1 1 4.868 4.869A4.87 4.87 0 0 1 15 20.064Z" clip-rule="evenodd"></path><path fill="var(--color-N600, #0f1e57)" fill-rule="evenodd" d="M19.75 13.751c-1.675 0-3.354.325-5.791 2.104-1.715 1.251-3.394 3.068-4.265 4.15.884 1.145 2.562 3.131 4.265 4.374 2.437 1.778 4.116 2.103 5.791 2.103 1.675 0 3.354-.325 5.791-2.103 1.707-1.246 3.386-3.148 4.264-4.262-.878-1.114-2.557-3.017-4.264-4.262-2.437-1.78-4.116-2.104-5.791-2.104Zm11.563 5.868c-.785-1.058-2.784-3.44-4.888-4.976-2.695-1.967-4.684-2.392-6.675-2.392-1.991 0-3.98.425-6.675 2.392-2.131 1.555-4.164 3.87-4.93 4.913a.75.75 0 0 0 0 .888c.743 1.01 2.779 3.577 4.93 5.146 2.695 1.968 4.684 2.392 6.675 2.392 1.991 0 3.98-.424 6.675-2.392 2.104-1.535 4.103-3.918 4.888-4.976a.75.75 0 0 0 .187-.497.75.75 0 0 0-.187-.498Z" clip-rule="evenodd"></path><path fill="var(--color-brand, #e4002b)" d="M20 6.001a2 2 0 1 0 0-4 2 2 0 0 0 0 4ZM5 31.001a2 2 0 1 0 0-4 2 2 0 0 0 0 4ZM35 31.001a2 2 0 1 0 0-4 2 2 0 0 0 0 4Z"></path><path fill="var(--color-N600, #0f1e57)" fill-rule="evenodd" d="M19.459 37.657a.75.75 0 0 0 .718.005l11.178-6a.75.75 0 1 0-.71-1.322l-10.817 5.807-10.464-5.802a.75.75 0 1 0-.728 1.312l10.823 6ZM35.75 12.501a.75.75 0 0 0-.314-.61l-10.5-7.5a.75.75 0 1 0-.872 1.22l10.186 7.276V25a.75.75 0 1 0 1.5 0v-12.5ZM3.52 12.501a.75.75 0 0 1 .333-.624l11.23-7.5a.75.75 0 1 1 .833 1.248L5.02 12.902v12.1a.75.75 0 1 1-1.5 0V12.5Z" clip-rule="evenodd"></path></svg>