<?xml version="1.0" encoding="UTF-8" standalone="no"?>
<!-- Created with Inkscape (http://www.inkscape.org/) -->

<svg
   width="128mm"
   height="131.76324mm"
   viewBox="0 0 128 131.76324"
   version="1.1"
   id="svg5"
   inkscape:version="1.2.2 (b0a8486541, 2022-12-01)"
   sodipodi:docname="f5xc.svg"
   xmlns:inkscape="http://www.inkscape.org/namespaces/inkscape"
   xmlns:sodipodi="http://sodipodi.sourceforge.net/DTD/sodipodi-0.dtd"
   xmlns="http://www.w3.org/2000/svg"
   xmlns:svg="http://www.w3.org/2000/svg">
  <sodipodi:namedview
     id="namedview7"
     pagecolor="#ffffff"
     bordercolor="#999999"
     borderopacity="1"
     inkscape:showpageshadow="0"
     inkscape:pageopacity="0"
     inkscape:pagecheckerboard="0"
     inkscape:deskcolor="#d1d1d1"
     inkscape:document-units="mm"
     showgrid="false"
     inkscape:zoom="0.84129232"
     inkscape:cx="106.38395"
     inkscape:cy="259.12515"
     inkscape:window-width="1434"
     inkscape:window-height="752"
     inkscape:window-x="50"
     inkscape:window-y="1194"
     inkscape:window-maximized="0"
     inkscape:current-layer="layer1" />
  <defs
     id="defs2" />
  <g
     inkscape:label="Layer 1"
     inkscape:groupmode="layer"
     id="layer1"
     transform="translate(-96.82585,-108.89936)">
    <path
       fill="var(--color-blue-light, #e5eaff)"
       d="m 160.82515,215.25124 c 21.30797,0 38.58781,-17.27985 38.58781,-38.58782 0,-21.30792 -17.27984,-38.58777 -38.58781,-38.58777 -21.30801,0 -38.58781,17.27985 -38.58781,38.58777 0,21.30797 17.2798,38.58782 38.58781,38.58782 z"
       id="path132"
       style="fill:#cdceff;fill-opacity:1;stroke-width:3.76466" />
    <path
       fill="var(--color-brand, #e4002b)"
       d="m 102.50672,177.021 c 0,-23.87542 15.14526,-46.00419 37.71062,-55.06571 a 2.8987906,2.8987906 0 0 0 1.58869,-3.73076 2.8724379,2.8724379 0 0 0 -3.70819,-1.60001 c -24.68868,9.93873 -41.27199,34.19828 -41.27199,60.35892 0,3.42585 0.301244,8.60591 0.944924,12.37821 0.225809,1.40863 1.441877,2.36038 2.804676,2.36038 0.15054,0 0.30125,0 0.48947,-0.0428 a 2.8536146,2.8536146 0 0 0 2.3115,-3.31289 c -0.60614,-3.38813 -0.86966,-8.15043 -0.86966,-11.35042 z m 17.54335,45.88 a 2.6842048,2.6842048 0 0 0 0.45928,3.8927 c 11.47847,8.93725 25.94986,13.8689 40.72616,13.8689 17.75794,0 31.49899,-7.5292 39.8828,-13.83123 a 2.6842048,2.6842048 0 0 0 0.49654,-3.89653 2.8912612,2.8912612 0 0 0 -4.01689,-0.48233 c -7.69501,5.78638 -20.21252,12.64927 -36.36657,12.64927 -13.66207,0 -26.48441,-4.37829 -37.12713,-12.64927 a 2.9326725,2.9326725 0 0 0 -4.05456,0.4482 z m 63.43449,-106.27648 a 2.8009093,2.8009093 0 0 0 -3.64408,1.63773 c -0.56485,1.4832 0.1507,3.12089 1.61492,3.68933 22.60308,8.86956 37.77463,30.98318 37.77463,55.03944 0,3.80598 -0.37717,7.612 -1.09129,11.34288 a 2.8611439,2.8611439 0 0 0 2.22124,3.35057 c 0.18488,0.0428 0.37264,0.0428 0.5236,0.0428 1.31331,0 2.51478,-0.95191 2.77827,-2.32286 0.79111,-4.07351 1.16392,-8.25971 1.16392,-12.40836 0.0428,-26.37521 -16.59459,-50.62351 -41.33977,-60.3665 z"
       id="path134"
       style="fill:#e4002b;stroke-width:3.76466;fill-opacity:1" />
    <path
       fill="var(--color-N600, #0f1e57)"
       d="m 160.82515,218.07463 c 22.85149,0 41.41121,-18.55971 41.41121,-41.41121 0,-22.8139 -18.55972,-41.41133 -41.41121,-41.41133 -22.85153,0 -41.41133,18.55988 -41.41133,41.41133 0,22.81382 18.59743,41.41121 41.41133,41.41121 z m -34.59728,-32.56421 c 4.63053,3.01174 11.59512,5.15758 19.42569,6.32459 1.16676,7.83049 3.3129,14.79512 6.32464,19.42565 a 35.832063,35.832063 0 0 1 -25.75033,-25.75024 z m 34.59728,-43.70772 c 3.1246,0 7.26575,7.07746 9.33629,19.01146 -3.08692,-0.26312 -6.21169,-0.41407 -9.33629,-0.41407 -3.12472,0 -6.24932,0.15071 -9.33637,0.41407 2.07049,-11.934 6.21165,-19.01146 9.33637,-19.01146 z m 0,24.20676 c 3.6141,0 6.96468,0.18817 10.12699,0.52648 0.33888,3.1246 0.52644,6.51285 0.52644,10.12695 0,3.61406 -0.18776,6.96463 -0.52644,10.12695 -3.12476,0.33888 -6.51289,0.52644 -10.12699,0.52644 -3.61406,0 -6.96463,-0.18818 -10.12695,-0.52644 -0.33888,-3.12476 -0.52644,-6.51289 -0.52644,-10.12695 0,-3.6141 0.18818,-6.96464 0.52644,-10.12695 3.16232,-0.33888 6.51289,-0.52648 10.12695,-0.52648 z m 15.84918,1.31759 c 11.93401,2.0705 19.01159,6.21165 19.01159,9.33625 0,3.12472 -7.07758,7.26588 -19.01159,9.33641 0.26312,-3.08708 0.41403,-6.21169 0.41403,-9.33641 0.0428,-3.1246 -0.11406,-6.28696 -0.41403,-9.33625 z m -15.84918,44.19714 c -3.12472,0 -7.26588,-7.07762 -9.33637,-19.01158 3.08705,0.26311 6.21165,0.41402 9.33637,0.41402 3.1246,0 6.24937,-0.1507 9.33629,-0.41402 -2.07054,11.93396 -6.21169,19.01158 -9.33629,19.01158 z m -15.84926,-25.52448 c -11.93401,-2.07053 -19.01155,-6.21169 -19.01155,-9.33641 0,-3.1246 7.07754,-7.26575 19.01155,-9.33625 -0.26312,3.04929 -0.41407,6.21165 -0.41407,9.33625 0,3.12472 0.1507,6.24933 0.41407,9.33641 z m 24.73381,25.26083 c 3.01174,-4.63041 5.15758,-11.59504 6.32463,-19.42565 7.83057,-1.16676 14.7952,-3.3129 19.42565,-6.32464 a 35.892297,35.892297 0 0 1 -25.75028,25.75029 z m 25.71273,-43.48175 c -4.63057,-3.01177 -11.59521,-5.15758 -19.42569,-6.32463 -1.16672,-7.83061 -3.31298,-14.79524 -6.32459,-19.42569 12.61155,3.23763 22.5502,13.17632 25.75028,25.75032 z M 151.9782,142.06602 c -3.01174,4.63061 -5.15759,11.59525 -6.32464,19.42569 -7.83057,1.16676 -14.79516,3.31302 -19.42569,6.32464 a 35.768063,35.768063 0 0 1 25.75033,-25.75033 z m 8.84695,-18.10789 a 7.529385,7.529385 0 1 0 0,-15.05877 7.529385,7.529385 0 0 0 0,15.05877 z m 52.70521,90.35186 a 7.5293736,7.5293736 0 1 0 0,-15.05872 7.5293736,7.5293736 0 0 0 0,15.05872 z m -105.41052,0 a 7.5293736,7.5293736 0 1 0 0,-15.05872 7.5293736,7.5293736 0 0 0 0,15.05872 z"
       id="path136"
       style="fill:#000080;stroke-width:3.76466" />
  </g>
  <g
     inkscape:groupmode="layer"
     id="layer2"
     inkscape:label="f5ball">
    <circle
       r="25.580303"
       cy="67.189384"
       cx="63.973057"
       fill="#e21d38"
       id="circle478"
       style="stroke-width:1.15226" />
    <path
       d="m 63.385397,69.712828 c 12.559707,1.037039 17.399218,4.493836 17.168784,9.218127 -0.230525,2.534985 -2.65022,4.954744 -5.761338,5.185196 -3.68725,0.230464 -5.415643,-1.267491 -6.452703,-2.880664 -0.921796,-1.497945 -1.958856,-2.995892 -2.995886,-4.609064 -0.230524,-0.460905 -0.691363,-0.115232 -1.037029,0.115232 -0.806595,0.69136 -1.497958,1.497947 -2.189321,2.189306 -0.460899,0.460908 -0.345667,0.806586 -0.230525,1.152265 0.691363,1.613172 1.382696,3.226345 2.074059,4.724291 1.152261,0.69136 6.337469,1.613173 10.139951,1.267494 2.65022,-0.230465 5.87657,-1.267494 8.641992,-3.226345 2.650221,-2.07408 4.609077,-4.839517 4.954744,-9.333353 0.115111,-2.76544 -0.345667,-5.646104 -2.765422,-8.296314 -2.419755,-2.650211 -6.567934,-4.839517 -14.979462,-5.415648 0.460898,-1.38272 0.806564,-2.650214 1.267493,-3.917705 5.069976,0.230465 9.563791,0.576134 13.366273,1.037039 0.345696,-1.497946 0.460898,-2.880663 0.806595,-4.263384 l -1.03703,-1.267491 c -1.958857,-0.230464 -3.802482,-0.69136 -5.876571,-0.921815 -2.650219,-0.345678 -5.415641,-0.576131 -8.411559,-0.691357 -1.958826,5.530874 -4.26338,12.559698 -6.683135,19.934197 m -3.341553,-21.54737 c -0.921827,0 -2.189322,0.230465 -4.263411,0.691361 -4.493814,1.267491 -10.024688,4.37861 -10.600819,9.563805 -0.115111,0.806586 -0.115111,1.728398 -0.230525,2.534984 -1.267494,0.115232 -2.419755,0.230465 -3.572017,0.345679 -0.115112,1.037042 -0.115112,1.958854 -0.230525,2.995889 1.152262,-0.115232 2.304523,-0.115232 3.572017,-0.230464 -0.230525,5.415651 0,10.831299 0.460929,15.901269 0.115111,0.806586 0.115111,1.497946 0.115111,1.958854 -0.115111,0.460904 -0.921797,0.691357 -2.074059,0.691357 l 1.497929,1.843628 c 4.378612,0.806586 9.909486,1.382717 15.786057,1.497942 V 84.231371 C 57.047656,84.000907 55.434465,83.540014 55.204001,82.848654 54.973477,82.27252 54.973477,81.465934 54.858335,80.659347 54.62781,75.358926 54.512638,69.597596 54.62781,63.721041 c 1.958857,0 3.917714,0 5.87657,-0.115232 1.03703,-0.460905 1.958858,-0.921813 2.880655,-1.382717 v -1.958854 c -2.995887,0 -5.87654,0.115232 -8.757225,0.115232 0.115111,-2.419759 0.230525,-4.724289 0.345696,-6.913594 0.115112,-1.497947 1.152262,-2.534986 2.074089,-2.534986 1.613161,-0.115231 3.111089,0.576134 4.609048,1.267495 0.806595,0.345678 1.613159,0.806586 2.419754,1.152264 0.345697,0.115232 0.806596,0.230464 1.152263,-0.115232 0.460928,-0.576134 0.921827,-1.152268 1.382726,-1.613172 0.230525,-0.345682 0.115111,-0.576134 0,-0.69136 -1.03703,-0.806586 -1.958857,-1.497947 -2.995887,-2.30453 -0.576131,-0.460908 -1.61319,-0.460908 -2.534987,-0.460908 -0.345667,-0.115232 -0.691364,0 -1.03703,0"
       fill="#ffffff"
       id="path480"
       style="stroke-width:1.15226" />
  </g>
</svg>
