<?xml version="1.0" encoding="UTF-8" standalone="no"?>
<svg
   width="512px"
   height="209px"
   viewBox="0 0 512 209"
   version="1.1"
   preserveAspectRatio="xMidYMid"
   id="svg646"
   sodipodi:docname="map-icon-akamai.svg"
   inkscape:version="1.2.2 (b0a8486541, 2022-12-01)"
   xmlns:inkscape="http://www.inkscape.org/namespaces/inkscape"
   xmlns:sodipodi="http://sodipodi.sourceforge.net/DTD/sodipodi-0.dtd"
   xmlns="http://www.w3.org/2000/svg"
   xmlns:svg="http://www.w3.org/2000/svg">
  <defs
     id="defs650" />
  <sodipodi:namedview
     id="namedview648"
     pagecolor="#ffffff"
     bordercolor="#999999"
     borderopacity="1"
     inkscape:showpageshadow="0"
     inkscape:pageopacity="0"
     inkscape:pagecheckerboard="0"
     inkscape:deskcolor="#d1d1d1"
     showgrid="false"
     inkscape:zoom="1.7871019"
     inkscape:cx="249.56607"
     inkscape:cy="104.91847"
     inkscape:window-width="1434"
     inkscape:window-height="773"
     inkscape:window-x="177"
     inkscape:window-y="1270"
     inkscape:window-maximized="0"
     inkscape:current-layer="layer1" />
  <g
     inkscape:groupmode="layer"
     id="layer1"
     inkscape:label="Background">
    <ellipse
       style="fill:#ffffff;stroke:#ffffff;stroke-width:3.62028;stroke-miterlimit:8"
       id="path824"
       cx="255.56017"
       cy="104.60723"
       rx="253.80499"
       ry="102.9604" />
  </g>
  <g
     id="g644"
     style="display:inline">
    <path
       d="m 156.16558,152.93072 h -20.85926 l 18.07059,-36.58736 H 153.6 Z m 0.89237,16.62048 1.22702,14.50109 h 22.97865 L 173.56689,99.611329 H 139.322 L 96.153377,184.05229 h 23.424833 l 7.25055,-14.50109 z m 56.33116,-22.53246 h 3.45795 l 16.50893,-22.19782 h 21.08235 l -22.75555,28.33289 14.0549,30.67538 h -22.53246 l -9.14684,-23.87102 h -3.23486 l -5.13116,23.87102 h -19.52069 l 17.84749,-84.106314 h 19.40915 z m 65.92418,12.49324 c 6.35817,0 10.59695,0.44619 9.36993,5.35425 -1.45011,6.35817 -4.01568,7.25055 -12.1586,7.25055 -3.01177,0 -8.47756,0 -7.02745,-6.35817 1.11547,-5.35425 5.13115,-6.24663 9.81612,-6.24663 z m 5.35425,24.31721 h 19.18605 l 7.69674,-36.81045 c 4.46187,-20.41308 -3.5695,-22.75556 -23.20175,-22.75556 -13.8318,0 -27.21743,-0.22309 -31.23311,18.29368 h 19.18606 c 1.22701,-5.35425 4.46187,-6.35817 9.14684,-6.35817 8.47756,0 8.25446,3.5695 6.80435,8.92375 l -1.89629,9.36993 h -0.89238 c -0.66928,-6.80435 -9.14684,-6.58126 -14.72418,-6.58126 -14.0549,0 -22.30937,4.46187 -25.32113,18.51678 -3.23486,15.05882 4.01568,18.29368 17.4013,18.29368 6.80436,0 15.72811,-1.45011 18.96297,-9.36994 h 0.66928 z m 58.45054,-59.00827 -1.6732,8.47755 h 0.66928 c 3.79259,-7.02745 11.48933,-8.92374 18.07059,-8.92374 8.47756,0 16.62048,1.45011 15.50501,11.48932 h 0.89237 c 2.78868,-8.47756 11.48933,-11.48932 18.96297,-11.48932 13.60871,0 19.40915,5.57734 16.39738,19.18605 l -8.70065,40.37996 h -19.18606 l 7.25055,-34.24488 c 0.89237,-6.35817 1.89629,-10.82004 -5.35425,-10.82004 -7.25055,0 -10.03922,4.90806 -11.26623,11.26623 l -7.02745,33.5756 h -19.18606 l 7.47364,-35.69499 c 0.89237,-5.35425 1.45011,-9.14684 -5.35425,-9.14684 -7.91983,0 -10.37385,4.23878 -11.71242,11.26623 l -7.02745,33.5756 h -19.18606 l 12.71634,-59.11983 h 17.8475 v 0.2231 z m 99.16514,34.69106 c 6.35817,0 10.59695,0.44619 9.36994,5.35425 -1.22702,6.35817 -4.01569,7.25055 -12.15861,7.25055 -2.78867,0 -8.47756,0 -7.02745,-6.35817 1.11547,-5.35425 4.90806,-6.24663 9.81612,-6.24663 z m 5.13116,24.31721 h 19.18606 l 7.69673,-36.81045 c 4.46187,-20.41308 -3.5695,-22.75556 -23.20175,-22.75556 -13.8318,0 -27.21742,-0.22309 -31.23311,18.29368 h 19.18606 c 1.22701,-5.35425 4.46187,-6.35817 9.14684,-6.35817 8.47756,0 8.25446,3.5695 6.80435,8.92375 l -1.89629,9.36993 h -0.89238 c -0.66928,-6.80435 -9.14684,-6.58126 -14.72418,-6.58126 -14.0549,0 -22.30937,4.46187 -25.32113,18.51678 -3.23486,15.05882 4.01568,18.29368 17.40131,18.29368 6.80435,0 15.7281,-1.45011 18.96296,-9.36994 h 0.66928 z m 47.40741,0 h -19.18606 l 12.3817,-59.11982 h 19.18606 z m 16.84357,-75.18257 c 0,5.91199 -4.90806,10.82005 -10.82004,10.82005 -5.91199,0 -10.82005,-4.90806 -10.82005,-10.82005 0,-6.13507 4.90806,-10.820041 10.82005,-10.820041 5.91198,0 10.82004,4.684971 10.82004,10.820041 z"
       fill="#f79838"
       id="path640" />
    <path
       d="m 106.19259,204.24227 c -42.945531,-13.16253 -74.0671,-52.76166 -74.0671,-99.38824 0,-47.407407 31.902397,-87.229629 75.51721,-100.1690627 4.46187,-1.2270152 3.23486,-4.23877994 -2.11939,-4.23877994 -57.892809,0 -105.07712264,46.62657964 -105.07712264,104.07320264 0,57.44662 46.84967364,104.0732 105.07712264,104.0732 5.35425,0.33464 5.57734,-2.67712 0.66928,-4.35032 z M 52.092375,128.94815 c -0.223094,-2.78867 -0.446188,-5.57734 -0.446188,-8.47756 0,-45.734207 37.033552,-82.767758 82.767753,-82.767758 43.16863,0 56.33116,19.186057 57.66972,18.070588 1.6732,-1.450108 -15.7281,-39.599128 -66.37037,-39.599128 -45.734205,0 -82.767756,37.033551 -82.767756,82.767756 0,10.596952 2.11939,20.636162 5.577342,30.006102 1.450109,4.01568 3.792592,4.01568 3.569499,0 z M 86.560349,69.382135 C 107.8658,60.0122 135.08322,59.789107 161.63137,68.935948 c 17.8475,6.35817 28.10981,15.058823 29.11373,14.724183 1.45011,-0.669281 -10.37386,-19.186057 -31.67931,-27.21743 -25.76732,-9.593028 -53.43093,-4.684967 -73.62091,11.266232 -2.230937,1.673202 -1.561656,2.900217 1.115469,1.673202 z"
       fill="#0098cc"
       id="path642" />
  </g>
</svg>
