<?xml version="1.0" encoding="UTF-8" standalone="no"?>
<svg
   height="700"
   width="700"
   viewBox="-7.139565 -11.1 36.094468 58.275"
   version="1.1"
   id="svg486"
   sodipodi:docname="map-icon-f5.svg"
   inkscape:version="1.2.2 (b0a8486541, 2022-12-01)"
   xmlns:inkscape="http://www.inkscape.org/namespaces/inkscape"
   xmlns:sodipodi="http://sodipodi.sourceforge.net/DTD/sodipodi-0.dtd"
   xmlns="http://www.w3.org/2000/svg"
   xmlns:svg="http://www.w3.org/2000/svg">
  <defs
     id="defs490" />
  <sodipodi:namedview
     id="namedview488"
     pagecolor="#ffffff"
     bordercolor="#999999"
     borderopacity="1"
     inkscape:showpageshadow="0"
     inkscape:pageopacity="0"
     inkscape:pagecheckerboard="0"
     inkscape:deskcolor="#d1d1d1"
     showgrid="false"
     inkscape:zoom="1.0783333"
     inkscape:cx="270.78825"
     inkscape:cy="351.00464"
     inkscape:window-width="1434"
     inkscape:window-height="953"
     inkscape:window-x="50"
     inkscape:window-y="89"
     inkscape:window-maximized="0"
     inkscape:current-layer="svg486" />
  <circle
     r="22.200001"
     cy="18.417931"
     cx="10.359859"
     fill="#e21d38"
     id="circle478" />
  <path
     d="m 9.8498548,20.607929 c 10.9000002,0.9 15.1000002,3.9 14.9000002,8 -0.2,2.2 -2.3,4.3 -5,4.5 -3.2,0.2 -4.7,-1.1 -5.6,-2.5 -0.8,-1.3 -1.7,-2.6 -2.6,-4 -0.2,-0.4 -0.6,-0.1 -0.9,0.1 -0.7000002,0.6 -1.3000002,1.3 -1.9000002,1.9 -0.4,0.4 -0.3,0.7 -0.2,1 0.6,1.4 1.2,2.8 1.8000002,4.1 1,0.6 5.5,1.4 8.8,1.1 2.3,-0.2 5.1,-1.1 7.5,-2.8 2.3,-1.8 4,-4.2 4.3,-8.1 0.1,-2.4 -0.3,-4.9 -2.4,-7.2 -2.1,-2.3 -5.7,-4.2 -13,-4.7 0.4,-1.2 0.7,-2.3000002 1.1,-3.4000002 4.4,0.2 8.3,0.5 11.6,0.9 0.3,-1.3 0.4,-2.5 0.7,-3.7 l -0.9,-1.1 c -1.7,-0.2 -3.3,-0.6 -5.1,-0.8 -2.3,-0.3 -4.7,-0.5 -7.3,-0.6 -1.7,4.8 -3.7,10.9000002 -5.8000002,17.3000002 m -2.9,-18.7000002 c -0.8,0 -1.9,0.2 -3.7,0.6 -3.90000005,1.1 -8.7,3.8 -9.2,8.3000002 -0.1,0.7 -0.1,1.5 -0.2,2.2 -1.1,0.1 -2.1,0.2 -3.1,0.3 -0.1,0.9 -0.1,1.7 -0.2,2.6 1,-0.1 2,-0.1 3.1,-0.2 -0.2,4.7 0,9.4 0.4,13.8 0.1,0.7 0.1,1.3 0.1,1.7 -0.1,0.4 -0.8,0.6 -1.8,0.6 l 1.3,1.6 c 3.8,0.7 8.6,1.2 13.7,1.3 v -1.5 c -3,-0.2 -4.4,-0.6 -4.6,-1.2 -0.2,-0.5 -0.2,-1.2 -0.3,-1.9 -0.2,-4.6 -0.3,-9.6 -0.2,-14.7 1.7,0 3.4,0 5.1,-0.1 0.9,-0.4 1.7,-0.8 2.5,-1.2 v -1.7 c -2.6,0 -5.1,0.1 -7.6,0.1 0.1,-2.1 0.2,-4.1000002 0.3,-6.0000002 0.1,-1.3 1,-2.2 1.8,-2.2 1.4,-0.1 2.7,0.5 4,1.1 0.7,0.3 1.4,0.7 2.1000002,1 0.3,0.1 0.7,0.2 1,-0.1 0.4,-0.5 0.8,-1 1.2,-1.4 0.2,-0.3 0.1,-0.5 0,-0.6 -0.9,-0.7 -1.7,-1.3 -2.6,-2 -0.5000002,-0.4 -1.4000002,-0.4 -2.2000002,-0.4 -0.3,-0.1 -0.6,0 -0.9,0"
     fill="#ffffff"
     id="path480" />
</svg>
